<svg xmlns="http://www.w3.org/2000/svg" viewBox="0 0 64 64">
  <!-- pernas, cabeça e cauda -->
  <g fill="#8fd16a" stroke="#1f5f2a" stroke-width="2.2" stroke-linejoin="round">
    <ellipse cx="17" cy="47" rx="6" ry="5"/>
    <ellipse cx="41" cy="48" rx="6" ry="5"/>
    <path d="M7 38 L1 41 L8 43 Z"/>
    <circle cx="52" cy="28" r="9"/>
  </g>
  <circle cx="55" cy="25" r="2.4" fill="#10241a"/>
  <circle cx="55.8" cy="24.2" r="0.8" fill="#fff"/>
  <path d="M51 32 q3 2 6 0" fill="none" stroke="#1f5f2a" stroke-width="1.6" stroke-linecap="round"/>
  <!-- casco -->
  <path d="M5 42 C5 22 18 13 29 13 C40 13 49 22 49 42 Z" fill="#2fa84f" stroke="#1f5f2a" stroke-width="2.4" stroke-linejoin="round"/>
  <g fill="#5cc96e" stroke="#1f5f2a" stroke-width="1.6" stroke-linejoin="round">
    <path d="M22 23 L36 23 L40 33 L33 41 L25 41 L18 33 Z"/>
    <path d="M11 34 L18 33 L25 41 L8 41 Z"/>
    <path d="M40 33 L46 34 L48 41 L33 41 Z"/>
  </g>
  <path d="M4 42 H50" stroke="#1f5f2a" stroke-width="3" stroke-linecap="round"/>
  <path d="M20 18 Q26 15 31 16" fill="none" stroke="#bff0b5" stroke-width="2" stroke-linecap="round" opacity="0.8"/>
</svg>
